ffmpeg started on 2025-06-06 at 19:11:59
Report written to "D:\Convert\FFMetrics\reports\psnr_report-6.txt"
Log level: 32
Command line:
ffmpeg -hide_banner -nostdin -i "G:\\\xc0\xed\xe8\xec\xe5\\\xce\xed\xe3\xee\xe8\xed\xe3\xe8\\!_36_\xce\xf1\xe5\xed\xfc_2024\\DreamCast\\\xd0\xee\xed \xca\xe0\xec\xee\xed\xee\xf5\xe0\xf1\xe8 - \xcd\xe5\xe2\xec\xe5\xed\xff\xe5\xec\xfb\xe9 \xe4\xe5\xf2\xe5\xea\xf2\xe8\xe2\\\xd2\xc2-1\\[DC] Kamonohashi Ron no Kindan Suiri - 03_Telegram_HEVC.mkv" -i "G:\\\xc0\xed\xe8\xec\xe5\\\xce\xed\xe3\xee\xe8\xed\xe3\xe8\\!_36_\xce\xf1\xe5\xed\xfc_2024\\DreamCast\\\xd0\xee\xed \xca\xe0\xec\xee\xed\xee\xf5\xe0\xf1\xe8 - \xcd\xe5\xe2\xec\xe5\xed\xff\xe5\xec\xfb\xe9 \xe4\xe5\xf2\xe5\xea\xf2\xe8\xe2\\\xd2\xc2-1\\[DC] Kamonohashi Ron no Kindan Suiri - 03_Telegram.mp4" -lavfi "[0:v]settb=AVTB,setpts=PTS-STARTPTS,format=pix_fmts=yuv420p10,fps=24000/1001,scale=1920:1080:flags=bicubic[main];[1:v]settb=AVTB,setpts=PTS-STARTPTS,format=pix_fmts=yuv420p,fps=24000/1001,scale=1920:1080:flags=bicubic[ref];[main][ref]psnr=eof_action=endall:stats_file='D\\:/Convert/FFMetrics/logs/psnr_logfile-6.txt'" -f null -
Input #0, matroska,webm, from 'G:\Аниме\Онгоинги\!_36_Осень_2024\DreamCast\Рон Камонохаси - Невменяемый детектив\ТВ-1\[DC] Kamonohashi Ron no Kindan Suiri - 03_Telegram_HEVC.mkv':
  Metadata:
    COMPATIBLE_BRANDS: isomiso2avc1mp41
    MAJOR_BRAND     : isom
    MINOR_VERSION   : 512
    ENCODER         : Lavf61.7.100
  Duration: 00:23:46.73, start: -0.021000, bitrate: 747 kb/s
  Stream #0:0: Video: hevc (Main 10), yuv420p10le(tv, bt709, progressive), 1920x1080 [SAR 1:1 DAR 16:9], 23.98 fps, 23.98 tbr, 1k tbn (default)
      Metadata:
        HANDLER_NAME    : VideoHandler
        VENDOR_ID       : [0][0][0][0]
        ENCODER         : Lavc61.19.100 libx265
        BPS             : 550710
        DURATION        : 00:23:46.549708333
        NUMBER_OF_FRAMES: 34203
        NUMBER_OF_BYTES : 98201850
        _STATISTICS_WRITING_APP: mkvpropedit v66.0.0 ('Josie') 64-bit
        _STATISTICS_WRITING_DATE_UTC: 2025-06-03 14:29:29
        _STATISTICS_TAGS: BPS DURATION NUMBER_OF_FRAMES NUMBER_OF_BYTES
  Stream #0:1: Audio: aac (LC), 48000 Hz, stereo, fltp (default)
      Metadata:
        HANDLER_NAME    : SoundHandler
        VENDOR_ID       : [0][0][0][0]
        ENCODER         : Lavc61.19.100 aac
        BPS             : 193200
        DURATION        : 00:23:46.730000000
        NUMBER_OF_FRAMES: 66879
        NUMBER_OF_BYTES : 34455541
        _STATISTICS_WRITING_APP: mkvpropedit v66.0.0 ('Josie') 64-bit
        _STATISTICS_WRITING_DATE_UTC: 2025-06-03 14:29:29
        _STATISTICS_TAGS: BPS DURATION NUMBER_OF_FRAMES NUMBER_OF_BYTES
Input #1, mov,mp4,m4a,3gp,3g2,mj2, from 'G:\Аниме\Онгоинги\!_36_Осень_2024\DreamCast\Рон Камонохаси - Невменяемый детектив\ТВ-1\[DC] Kamonohashi Ron no Kindan Suiri - 03_Telegram.mp4':
  Metadata:
    major_brand     : isom
    minor_version   : 512
    compatible_brands: isomiso2avc1mp41
    encoder         : Lavf60.12.100
  Duration: 00:23:46.68, start: 0.000000, bitrate: 3290 kb/s
  Stream #1:0[0x1](und): Video: h264 (High) (avc1 / 0x31637661), yuv420p(tv, bt709, progressive), 1920x1080 [SAR 1:1 DAR 16:9], 3142 kb/s, 23.98 fps, 23.98 tbr, 24k tbn (default)
      Metadata:
        handler_name    : VideoHandler
        vendor_id       : [0][0][0][0]
        encoder         : Lavc60.26.100 h264_qsv
  Stream #1:1[0x2](und): Audio: aac (HE-AACv2) (mp4a / 0x6134706D), 48000 Hz, stereo, fltp, 144 kb/s (default)
      Metadata:
        handler_name    : SoundHandler
        vendor_id       : [0][0][0][0]
Stream mapping:
  Stream #0:0 (hevc) -> settb:default
  Stream #1:0 (h264) -> settb:default
  psnr:default -> Stream #0:0 (wrapped_avframe)
  Stream #0:1 -> #0:1 (aac (native) -> pcm_s16le (native))
Output #0, null, to 'pipe:':
  Metadata:
    COMPATIBLE_BRANDS: isomiso2avc1mp41
    MAJOR_BRAND     : isom
    MINOR_VERSION   : 512
    encoder         : Lavf61.7.100
  Stream #0:0: Video: wrapped_avframe, yuv420p10le(tv, bt709, progressive), 1920x1080 [SAR 1:1 DAR 16:9], q=2-31, 200 kb/s, 23.98 fps, 23.98 tbn
      Metadata:
        encoder         : Lavc61.19.100 wrapped_avframe
  Stream #0:1: Audio: pcm_s16le, 48000 Hz, stereo, s16, 1536 kb/s (default)
      Metadata:
        HANDLER_NAME    : SoundHandler
        VENDOR_ID       : [0][0][0][0]
        _STATISTICS_TAGS: BPS DURATION NUMBER_OF_FRAMES NUMBER_OF_BYTES
        BPS             : 193200
        DURATION        : 00:23:46.730000000
        NUMBER_OF_FRAMES: 66879
        NUMBER_OF_BYTES : 34455541
        _STATISTICS_WRITING_APP: mkvpropedit v66.0.0 ('Josie') 64-bit
        _STATISTICS_WRITING_DATE_UTC: 2025-06-03 14:29:29
        encoder         : Lavc61.19.100 pcm_s16le
frame=  171 fps=0.0 q=-0.0 size=N/A time=00:00:07.13 bitrate=N/A speed=13.8x    frame=  419 fps=409 q=-0.0 size=N/A time=00:00:17.47 bitrate=N/A speed=17.1x    frame=  696 fps=449 q=-0.0 size=N/A time=00:00:29.02 bitrate=N/A speed=18.7x    frame=  966 fps=469 q=-0.0 size=N/A time=00:00:40.29 bitrate=N/A speed=19.6x    frame= 1239 fps=480 q=-0.0 size=N/A time=00:00:51.67 bitrate=N/A speed=  20x    frame= 1522 fps=492 q=-0.0 size=N/A time=00:01:03.48 bitrate=N/A speed=20.5x    frame= 1810 fps=502 q=-0.0 size=N/A time=00:01:15.49 bitrate=N/A speed=20.9x    frame= 2103 fps=510 q=-0.0 size=N/A time=00:01:27.71 bitrate=N/A speed=21.3x    frame= 2376 fps=513 q=-0.0 size=N/A time=00:01:39.09 bitrate=N/A speed=21.4x    frame= 2677 fps=519 q=-0.0 size=N/A time=00:01:51.65 bitrate=N/A speed=21.7x    frame= 2967 fps=523 q=-0.0 size=N/A time=00:02:03.74 bitrate=N/A speed=21.8x    frame= 3194 fps=516 q=-0.0 size=N/A time=00:02:13.21 bitrate=N/A speed=21.5x    frame= 3435 fps=512 q=-0.0 size=N/A time=00:02:23.26 bitrate=N/A speed=21.4x    frame= 3670 fps=508 q=-0.0 size=N/A time=00:02:33.06 bitrate=N/A speed=21.2x    frame= 3924 fps=507 q=-0.0 size=N/A time=00:02:43.66 bitrate=N/A speed=21.2x    frame= 4161 fps=505 q=-0.0 size=N/A time=00:02:53.54 bitrate=N/A speed=  21x    frame= 4396 fps=501 q=-0.0 size=N/A time=00:03:03.34 bitrate=N/A speed=20.9x    frame= 4602 fps=496 q=-0.0 size=N/A time=00:03:11.94 bitrate=N/A speed=20.7x    frame= 4867 fps=497 q=-0.0 size=N/A time=00:03:22.99 bitrate=N/A speed=20.7x    frame= 5112 fps=496 q=-0.0 size=N/A time=00:03:33.21 bitrate=N/A speed=20.7x    frame= 5386 fps=497 q=-0.0 size=N/A time=00:03:44.64 bitrate=N/A speed=20.7x    frame= 5656 fps=499 q=-0.0 size=N/A time=00:03:55.90 bitrate=N/A speed=20.8x    frame= 5902 fps=497 q=-0.0 size=N/A time=00:04:06.16 bitrate=N/A speed=20.7x    frame= 6171 fps=499 q=-0.0 size=N/A time=00:04:17.38 bitrate=N/A speed=20.8x    frame= 6444 fps=500 q=-0.0 size=N/A time=00:04:28.76 bitrate=N/A speed=20.8x    frame= 6729 fps=502 q=-0.0 size=N/A time=00:04:40.65 bitrate=N/A speed=20.9x    frame= 7002 fps=503 q=-0.0 size=N/A time=00:04:52.04 bitrate=N/A speed=  21x    frame= 7265 fps=503 q=-0.0 size=N/A time=00:05:03.01 bitrate=N/A speed=  21x    frame= 7534 fps=504 q=-0.0 size=N/A time=00:05:14.23 bitrate=N/A speed=  21x    frame= 7809 fps=505 q=-0.0 size=N/A time=00:05:25.70 bitrate=N/A speed=21.1x    frame= 8075 fps=505 q=-0.0 size=N/A time=00:05:36.79 bitrate=N/A speed=21.1x    frame= 8345 fps=506 q=-0.0 size=N/A time=00:05:48.05 bitrate=N/A speed=21.1x    frame= 8614 fps=506 q=-0.0 size=N/A time=00:05:59.27 bitrate=N/A speed=21.1x    frame= 8901 fps=508 q=-0.0 size=N/A time=00:06:11.24 bitrate=N/A speed=21.2x    frame= 9167 fps=508 q=-0.0 size=N/A time=00:06:22.34 bitrate=N/A speed=21.2x    frame= 9425 fps=508 q=-0.0 size=N/A time=00:06:33.10 bitrate=N/A speed=21.2x    frame= 9686 fps=508 q=-0.0 size=N/A time=00:06:43.98 bitrate=N/A speed=21.2x    frame= 9968 fps=509 q=-0.0 size=N/A time=00:06:55.74 bitrate=N/A speed=21.2x    frame=10238 fps=509 q=-0.0 size=N/A time=00:07:07.00 bitrate=N/A speed=21.2x    frame=10466 fps=508 q=-0.0 size=N/A time=00:07:16.51 bitrate=N/A speed=21.2x    frame=10713 fps=507 q=-0.0 size=N/A time=00:07:26.82 bitrate=N/A speed=21.1x    frame=10974 fps=507 q=-0.0 size=N/A time=00:07:37.70 bitrate=N/A speed=21.1x    frame=11262 fps=508 q=-0.0 size=N/A time=00:07:49.71 bitrate=N/A speed=21.2x    frame=11522 fps=508 q=-0.0 size=N/A time=00:08:00.56 bitrate=N/A speed=21.2x    frame=11773 fps=507 q=-0.0 size=N/A time=00:08:11.03 bitrate=N/A speed=21.2x    frame=12031 fps=507 q=-0.0 size=N/A time=00:08:21.79 bitrate=N/A speed=21.2x    frame=12307 fps=508 q=-0.0 size=N/A time=00:08:33.30 bitrate=N/A speed=21.2x    frame=12591 fps=509 q=-0.0 size=N/A time=00:08:45.14 bitrate=N/A speed=21.2x    frame=12856 fps=509 q=-0.0 size=N/A time=00:08:56.20 bitrate=N/A speed=21.2x    frame=13120 fps=509 q=-0.0 size=N/A time=00:09:07.21 bitrate=N/A speed=21.2x    frame=13365 fps=508 q=-0.0 size=N/A time=00:09:17.43 bitrate=N/A speed=21.2x    frame=13619 fps=508 q=-0.0 size=N/A time=00:09:28.02 bitrate=N/A speed=21.2x    frame=13869 fps=508 q=-0.0 size=N/A time=00:09:38.45 bitrate=N/A speed=21.2x    frame=14164 fps=509 q=-0.0 size=N/A time=00:09:50.75 bitrate=N/A speed=21.2x    frame=14451 fps=510 q=-0.0 size=N/A time=00:10:02.72 bitrate=N/A speed=21.3x    frame=14719 fps=510 q=-0.0 size=N/A time=00:10:13.90 bitrate=N/A speed=21.3x    frame=14988 fps=510 q=-0.0 size=N/A time=00:10:25.12 bitrate=N/A speed=21.3x    frame=15242 fps=510 q=-0.0 size=N/A time=00:10:35.71 bitrate=N/A speed=21.3x    frame=15505 fps=510 q=-0.0 size=N/A time=00:10:46.68 bitrate=N/A speed=21.3x    frame=15718 fps=508 q=-0.0 size=N/A time=00:10:55.57 bitrate=N/A speed=21.2x    frame=15974 fps=508 q=-0.0 size=N/A time=00:11:06.24 bitrate=N/A speed=21.2x    frame=16230 fps=508 q=-0.0 size=N/A time=00:11:16.92 bitrate=N/A speed=21.2x    frame=16492 fps=508 q=-0.0 size=N/A time=00:11:27.85 bitrate=N/A speed=21.2x    frame=16768 fps=508 q=-0.0 size=N/A time=00:11:39.36 bitrate=N/A speed=21.2x    frame=17008 fps=507 q=-0.0 size=N/A time=00:11:49.37 bitrate=N/A speed=21.2x    frame=17271 fps=508 q=-0.0 size=N/A time=00:12:00.34 bitrate=N/A speed=21.2x    frame=17545 fps=508 q=-0.0 size=N/A time=00:12:11.77 bitrate=N/A speed=21.2x    frame=17815 fps=508 q=-0.0 size=N/A time=00:12:23.03 bitrate=N/A speed=21.2x    frame=18086 fps=508 q=-0.0 size=N/A time=00:12:34.33 bitrate=N/A speed=21.2x    frame=18362 fps=509 q=-0.0 size=N/A time=00:12:45.84 bitrate=N/A speed=21.2x    frame=18636 fps=509 q=-0.0 size=N/A time=00:12:57.27 bitrate=N/A speed=21.2x    frame=18886 fps=509 q=-0.0 size=N/A time=00:13:07.70 bitrate=N/A speed=21.2x    frame=19143 fps=509 q=-0.0 size=N/A time=00:13:18.42 bitrate=N/A speed=21.2x    frame=19432 fps=509 q=-0.0 size=N/A time=00:13:30.47 bitrate=N/A speed=21.2x    frame=19713 fps=510 q=-0.0 size=N/A time=00:13:42.19 bitrate=N/A speed=21.3x    frame=19970 fps=510 q=-0.0 size=N/A time=00:13:52.91 bitrate=N/A speed=21.3x    frame=20258 fps=510 q=-0.0 size=N/A time=00:14:04.92 bitrate=N/A speed=21.3x    frame=20536 fps=511 q=-0.0 size=N/A time=00:14:16.52 bitrate=N/A speed=21.3x    frame=20787 fps=510 q=-0.0 size=N/A time=00:14:26.99 bitrate=N/A speed=21.3x    frame=21029 fps=510 q=-0.0 size=N/A time=00:14:37.08 bitrate=N/A speed=21.3x    frame=21285 fps=510 q=-0.0 size=N/A time=00:14:47.76 bitrate=N/A speed=21.3x    frame=21533 fps=509 q=-0.0 size=N/A time=00:14:58.10 bitrate=N/A speed=21.2x    frame=21811 fps=510 q=-0.0 size=N/A time=00:15:09.70 bitrate=N/A speed=21.3x    frame=22075 fps=510 q=-0.0 size=N/A time=00:15:20.71 bitrate=N/A speed=21.3x    frame=22346 fps=510 q=-0.0 size=N/A time=00:15:32.01 bitrate=N/A speed=21.3x    frame=22617 fps=510 q=-0.0 size=N/A time=00:15:43.31 bitrate=N/A speed=21.3x    frame=22886 fps=510 q=-0.0 size=N/A time=00:15:54.53 bitrate=N/A speed=21.3x    frame=23158 fps=510 q=-0.0 size=N/A time=00:16:05.88 bitrate=N/A speed=21.3x    frame=23428 fps=511 q=-0.0 size=N/A time=00:16:17.14 bitrate=N/A speed=21.3x    frame=23707 fps=511 q=-0.0 size=N/A time=00:16:28.77 bitrate=N/A speed=21.3x    frame=23958 fps=511 q=-0.0 size=N/A time=00:16:39.24 bitrate=N/A speed=21.3x    frame=24207 fps=510 q=-0.0 size=N/A time=00:16:49.63 bitrate=N/A speed=21.3x    frame=24480 fps=511 q=-0.0 size=N/A time=00:17:01.02 bitrate=N/A speed=21.3x    frame=24759 fps=511 q=-0.0 size=N/A time=00:17:12.65 bitrate=N/A speed=21.3x    frame=25022 fps=511 q=-0.0 size=N/A time=00:17:23.62 bitrate=N/A speed=21.3x    frame=25288 fps=511 q=-0.0 size=N/A time=00:17:34.72 bitrate=N/A speed=21.3x    frame=25572 fps=511 q=-0.0 size=N/A time=00:17:46.56 bitrate=N/A speed=21.3x    frame=25844 fps=511 q=-0.0 size=N/A time=00:17:57.91 bitrate=N/A speed=21.3x    frame=26116 fps=512 q=-0.0 size=N/A time=00:18:09.25 bitrate=N/A speed=21.3x    frame=26392 fps=512 q=-0.0 size=N/A time=00:18:20.76 bitrate=N/A speed=21.3x    frame=26662 fps=512 q=-0.0 size=N/A time=00:18:32.02 bitrate=N/A speed=21.4x    frame=26921 fps=512 q=-0.0 size=N/A time=00:18:42.83 bitrate=N/A speed=21.3x    frame=27154 fps=511 q=-0.0 size=N/A time=00:18:52.54 bitrate=N/A speed=21.3x    frame=27422 fps=511 q=-0.0 size=N/A time=00:19:03.72 bitrate=N/A speed=21.3x    frame=27645 fps=511 q=-0.0 size=N/A time=00:19:13.02 bitrate=N/A speed=21.3x    frame=27852 fps=510 q=-0.0 size=N/A time=00:19:21.66 bitrate=N/A speed=21.3x    frame=28119 fps=510 q=-0.0 size=N/A time=00:19:32.79 bitrate=N/A speed=21.3x    frame=28400 fps=510 q=-0.0 size=N/A time=00:19:44.51 bitrate=N/A speed=21.3x    frame=28669 fps=510 q=-0.0 size=N/A time=00:19:55.73 bitrate=N/A speed=21.3x    frame=28943 fps=510 q=-0.0 size=N/A time=00:20:07.16 bitrate=N/A speed=21.3x    frame=29154 fps=509 q=-0.0 size=N/A time=00:20:15.96 bitrate=N/A speed=21.2x    frame=29439 fps=510 q=-0.0 size=N/A time=00:20:27.85 bitrate=N/A speed=21.3x    frame=29693 fps=510 q=-0.0 size=N/A time=00:20:38.44 bitrate=N/A speed=21.3x    frame=29988 fps=510 q=-0.0 size=N/A time=00:20:50.74 bitrate=N/A speed=21.3x    frame=30255 fps=510 q=-0.0 size=N/A time=00:21:01.88 bitrate=N/A speed=21.3x    frame=30533 fps=510 q=-0.0 size=N/A time=00:21:13.48 bitrate=N/A speed=21.3x    frame=30769 fps=510 q=-0.0 size=N/A time=00:21:23.32 bitrate=N/A speed=21.3x    frame=31028 fps=510 q=-0.0 size=N/A time=00:21:34.12 bitrate=N/A speed=21.3x    frame=31284 fps=510 q=-0.0 size=N/A time=00:21:44.80 bitrate=N/A speed=21.3x    frame=31531 fps=510 q=-0.0 size=N/A time=00:21:55.10 bitrate=N/A speed=21.3x    frame=31800 fps=510 q=-0.0 size=N/A time=00:22:06.32 bitrate=N/A speed=21.3x    frame=32082 fps=510 q=-0.0 size=N/A time=00:22:18.08 bitrate=N/A speed=21.3x    frame=32355 fps=510 q=-0.0 size=N/A time=00:22:29.47 bitrate=N/A speed=21.3x    frame=32619 fps=510 q=-0.0 size=N/A time=00:22:40.48 bitrate=N/A speed=21.3x    frame=32883 fps=510 q=-0.0 size=N/A time=00:22:51.49 bitrate=N/A speed=21.3x    frame=33176 fps=511 q=-0.0 size=N/A time=00:23:03.71 bitrate=N/A speed=21.3x    frame=33459 fps=511 q=-0.0 size=N/A time=00:23:15.51 bitrate=N/A speed=21.3x    frame=33728 fps=511 q=-0.0 size=N/A time=00:23:26.73 bitrate=N/A speed=21.3x    frame=33978 fps=511 q=-0.0 size=N/A time=00:23:37.16 bitrate=N/A speed=21.3x    [Parsed_psnr_10 @ 0000023d4c15e840] PSNR y:48.830870 u:49.758858 v:50.484403 average:49.215896 min:42.349113 max:inf
[out#0/null @ 0000023d4b8e5580] video:14697KiB audio:267516KiB subtitle:0KiB other streams:0KiB global headers:0KiB muxing overhead: unknown
frame=34203 fps=511 q=-0.0 Lsize=N/A time=00:23:46.55 bitrate=N/A speed=21.3x    
